<?xml version="1.0" encoding="utf-8"?>
<!-- Generator: Adobe Illustrator 19.2.1, SVG Export Plug-In . SVG Version: 6.00 Build 0)  -->
<svg version="1.1" id="Layer_1" xmlns="http://www.w3.org/2000/svg" xmlns:xlink="http://www.w3.org/1999/xlink" x="0px" y="0px"
	 viewBox="0 0 187.9 10" style="enable-background:new 0 0 187.9 10;" xml:space="preserve">
<style type="text/css">
	.st0{fill:#231F20;}
</style>
<title>Untitled-1</title>
<path class="st0" d="M8.9,8H7.1C7.1,8,7,8,7,8.1c0,0,0,0,0,0l0.8,1.6c0,0,0.1,0.1,0.1,0.1h1.8c0.1,0,0.1,0,0.1-0.1c0,0,0,0,0-0.1
	L8.9,8C9,8,8.9,8,8.9,8z"/>
<path class="st0" d="M8.2,6.6c0,0,0-0.1,0-0.1L5,0.1C5,0,4.9,0,4.9,0c0,0,0,0,0,0L0,9.6c0,0,0,0.1,0,0.1c0,0,0,0,0.1,0h1.8
	c0,0,0.1,0,0.1-0.1l2.9-5.8l1.3,2.6c0,0,0.1,0.1,0.1,0.1h1.8C8.1,6.6,8.2,6.6,8.2,6.6z"/>
<path class="st0" d="M187.9,0.1C187.9,0,187.8,0,187.9,0.1H186c0,0-0.1,0-0.1,0.1l-0.8,1.6c0,0.1,0,0.1,0.1,0.1c0,0,0,0,0,0h1.8
	c0,0,0.1,0,0.1-0.1l0.8-1.6C187.9,0.2,187.9,0.1,187.9,0.1z"/>
<path class="st0" d="M21.3,0h-1.6c-0.1,0-0.1,0-0.1,0.1l0,0v5.5L13.4,0c0,0-0.1,0-0.1,0c0,0-0.1,0.1-0.1,0.1v2.4c0,0,0,0,0,0.1
	l8,7.2h0.1h0c0,0,0.1-0.1,0.1-0.1V0.1C21.4,0.1,21.3,0,21.3,0z"/>
<path class="st0" d="M32.8,1.4c-0.4-0.4-1-0.8-1.5-1C30.6,0.1,30,0,29.3,0h-3.2c0,0-0.1,0-0.1,0.1c0,0,0,0.1,0,0.1l1.6,1.6
	c0,0,0,0,0.1,0h1.6c0.4,0,0.8,0.1,1.2,0.2c0.4,0.2,0.7,0.4,1,0.7c0.3,0.3,0.5,0.6,0.7,1c0.3,0.8,0.3,1.6,0,2.4
	c-0.2,0.4-0.4,0.7-0.7,1c-0.3,0.3-0.6,0.5-1,0.7C30.1,7.9,29.7,8,29.3,8h-1.6c0,0,0,0-0.1,0L26,9.6c0,0,0,0.1,0,0.1
	c0,0,0.1,0.1,0.1,0.1h3.2c0.7,0,1.3-0.1,1.9-0.4c0.6-0.2,1.1-0.6,1.6-1c0.4-0.5,0.8-1,1-1.6c0.5-1.2,0.5-2.6,0-3.8
	C33.6,2.4,33.2,1.9,32.8,1.4z"/>
<path class="st0" d="M46,5.2c0.4-0.5,0.6-1.2,0.6-1.9c0-1.8-1.5-3.3-3.3-3.3c0,0,0,0,0,0h-4.2C39,0,39,0,39,0.1c0,0,0,0,0,0.1
	l0.9,1.6c0,0,0.1,0,0.1,0h3.3c0.4,0,0.7,0.2,1,0.4c0.3,0.3,0.4,0.6,0.5,1c0,0.4-0.2,0.8-0.5,1.1c-0.3,0.3-0.6,0.4-1,0.4h-1.4
	c-0.1,0-0.1,0-0.1,0.1c0,0,0,0,0,0.1l2.8,4.8c0,0,0.1,0,0.1,0h1.8c0.1,0,0.1,0,0.1-0.1c0,0,0,0,0-0.1l-1.9-3.3
	C45.2,6,45.6,5.6,46,5.2z"/>
<path class="st0" d="M132.4,5.2c0.4-0.5,0.6-1.2,0.6-1.9c0-1.8-1.5-3.3-3.3-3.3c0,0,0,0,0,0h-4.2c-0.1,0-0.1,0-0.1,0.1
	c0,0,0,0,0,0.1l0.9,1.6c0,0,0.1,0,0.1,0h3.3c0.4,0,0.7,0.2,1,0.4c0.3,0.3,0.4,0.6,0.5,1c0,0.4-0.2,0.8-0.5,1.1
	c-0.3,0.3-0.6,0.4-1,0.4h-1.4c-0.1,0-0.1,0-0.1,0.1c0,0,0,0,0,0.1l2.8,4.8c0,0,0.1,0,0.1,0h1.8c0.1,0,0.1,0,0.1-0.1c0,0,0,0,0-0.1
	L131,6.2C131.5,6,132,5.6,132.4,5.2z"/>
<path class="st0" d="M57.6,0h-6.4c0,0-0.1,0-0.1,0.1c0,0,0,0.1,0,0.1l1.6,1.6c0,0,0,0,0.1,0h4.8c0.1,0,0.1,0,0.1-0.1l0,0L57.6,0
	C57.7,0,57.6,0,57.6,0z"/>
<path class="st0" d="M52.8,4h2.6c0.1,0,0.1,0,0.1,0.1v1.6c0,0.1,0,0.1-0.1,0.1h-2.6c-0.1,0-0.1,0-0.1-0.1L52.8,4
	C52.7,4.1,52.7,4,52.8,4z"/>
<path class="st0" d="M57.6,8h-4.8c0,0,0,0-0.1,0l-1.6,1.6c0,0,0,0.1,0,0.1c0,0,0.1,0.1,0.1,0.1h6.4c0.1,0,0.1,0,0.1-0.1l0,0V8.1
	C57.7,8,57.6,8,57.6,8z"/>
<path class="st0" d="M77.5,0h-1.8c0,0-0.1,0-0.1,0.1l-2.9,5.8l-2-4c0,0-0.1-0.1-0.1-0.1c0,0-0.1,0-0.1,0.1l-0.9,1.8c0,0,0,0.1,0,0.1
	l3,6c0,0,0.1,0.1,0.1,0.1c0,0,0.1,0,0.1-0.1l4.8-9.6c0.1,0,0.1-0.1,0-0.1C77.6,0,77.5,0,77.5,0z"/>
<path class="st0" d="M63.7,0.1C63.7,0,63.7,0,63.7,0.1L61.8,0c-0.1,0-0.1,0-0.1,0.1c0,0,0,0,0,0.1l4.8,9.6c0,0,0.1,0.1,0.1,0
	c0,0,0,0,0,0l0.9-1.8c0,0,0-0.1,0-0.1L63.7,0.1z"/>
<path class="st0" d="M89.6,0c-2.8,0-5,2.2-5.1,4.9c0,2.8,2.2,5,4.9,5.1c2.8,0,5-2.2,5.1-4.9c0-1.4-0.5-2.7-1.5-3.6
	C92.2,0.5,90.9,0,89.6,0z M91.8,7.1c-1.2,1.2-3.2,1.2-4.4,0c-1.2-1.2-1.2-3.2,0-4.4c1.2-1.2,3.2-1.2,4.4,0c0.6,0.6,0.9,1.4,0.9,2.2
	C92.7,5.7,92.4,6.5,91.8,7.1L91.8,7.1z"/>
<path class="st0" d="M106.6,0.1C106.6,0,106.5,0,106.6,0.1L104.2,0c0,0,0,0-0.1,0l-4.8,4.8c0,0,0,0,0,0.1c0,0,0,0,0,0.1l4.8,4.8
	c0,0,0,0,0.1,0h2.2c0.1,0,0.1,0,0.1-0.1c0,0,0-0.1,0-0.1l-4.7-4.7L106.6,0.1C106.6,0.1,106.6,0.1,106.6,0.1z"/>
<path class="st0" d="M159.3,0.1C159.3,0,159.2,0,159.3,0.1L157,0c0,0,0,0-0.1,0l-4.8,4.8c0,0,0,0,0,0.1c0,0,0,0,0,0.1l4.8,4.8
	c0,0,0,0,0.1,0h2.3c0.1,0,0.1,0,0.1-0.1c0,0,0-0.1,0-0.1l-4.7-4.7L159.3,0.1C159.3,0.1,159.3,0.1,159.3,0.1z"/>
<path class="st0" d="M115.7,0c-2.8,0-5,2.2-5.1,4.9c0,2.8,2.2,5,4.9,5.1c2.8,0,5-2.2,5.1-4.9c0-1.4-0.5-2.7-1.5-3.6
	C118.2,0.5,117,0,115.7,0z M117.9,7.1c-1.2,1.2-3.2,1.2-4.4,0c-1.2-1.2-1.2-3.2,0-4.4c1.2-1.2,3.2-1.2,4.4,0
	c0.6,0.6,0.9,1.4,0.9,2.2C118.8,5.7,118.5,6.5,117.9,7.1L117.9,7.1z"/>
<path class="st0" d="M142.4,0c-2.8,0-5,2.2-5.1,4.9c0,2.8,2.2,5,4.9,5.1c2.8,0,5-2.2,5.1-4.9c0-1.4-0.5-2.7-1.5-3.6
	C144.9,0.5,143.7,0,142.4,0z M144.6,7.1c-1.2,1.2-3.2,1.2-4.4,0c-1.2-1.2-1.2-3.2,0-4.4c1.2-1.2,3.2-1.2,4.4,0
	c0.6,0.6,0.9,1.4,0.9,2.2C145.5,5.7,145.2,6.5,144.6,7.1L144.6,7.1z"/>
<path class="st0" d="M168.4,0c-2.8,0-5,2.2-5.1,4.9c0,2.8,2.2,5,4.9,5.1c2.8,0,5-2.2,5.1-4.9c0-1.4-0.5-2.7-1.5-3.6
	C171,0.5,169.7,0,168.4,0z M170.6,7.1c-1.2,1.2-3.2,1.2-4.4,0c-1.2-1.2-1.2-3.2,0-4.4c1.2-1.2,3.2-1.2,4.4,0
	c0.6,0.6,0.9,1.4,0.9,2.2C171.5,5.7,171.2,6.5,170.6,7.1z"/>
<path class="st0" d="M180,0h-1.8c-0.1,0-0.1,0-0.1,0.1c0,0,0,0,0,0.1l4.8,9.6c0,0,0.1,0.1,0.1,0.1c0,0,0.1,0,0.1-0.1l0.9-1.8
	c0,0,0-0.1,0-0.1L180,0C180.1,0,180,0,180,0z"/>
</svg>
