<svg xmlns="http://www.w3.org/2000/svg" viewBox="483 85 474.5 25"><g transform="translate(483 85)"><path d="M11.8,8H7v.252l2.02,4.041.253.253h4.8v-.253L11.8,8Z" transform="translate(10.677 12.202)"/><path d="M20.707,16.629h0L12.626.214c0-.253-.505-.253-.505,0L0,24.457v.253H4.8a.247.247,0,0,0,.253-.253L12.374,9.81l3.283,6.566.253.253Z" transform="translate(0 0.038)"/><path d="M192.168,0h-4.8a.247.247,0,0,0-.252.253l-2.02,4.04v.253h4.8a.247.247,0,0,0,.253-.253L192.168,0Z" transform="translate(282.332)"/><path d="M33.655,0h-4.04c-.253,0-.253,0-.253.253V14.142L13.7,0h-.253L13.2.253V6.566L33.4,24.748h.505l.253-.253V.253A.782.782,0,0,0,33.655,0Z" transform="translate(20.134)"/><path d="M42.919,3.535A16.281,16.281,0,0,0,38.879.758,12.234,12.234,0,0,0,34.333,0H26.253A.247.247,0,0,0,26,.253V.505l4.04,4.04h4.293a12.675,12.675,0,0,1,3.03.505,8.87,8.87,0,0,1,4.293,4.293,6.406,6.406,0,0,1,.505,3.03,12.673,12.673,0,0,1-.505,3.03A8.869,8.869,0,0,1,37.363,19.7a12.675,12.675,0,0,1-3.03.505H30.04L26,24.243V24.5l.253.253h8.081a10.248,10.248,0,0,0,4.8-1.01,14.433,14.433,0,0,0,4.041-2.778,16.281,16.281,0,0,0,2.778-4.04,10.248,10.248,0,0,0,1.01-4.8A9.451,9.451,0,0,0,45.7,7.576,14.432,14.432,0,0,0,42.919,3.535Z" transform="translate(39.657)"/><path d="M56.674,13.131a8.314,8.314,0,0,0,1.515-4.8,7.313,7.313,0,0,0-2.525-5.808A8.219,8.219,0,0,0,49.856,0H39.25C39,0,39,0,39,.253V.505l2.273,4.04h8.586a3.242,3.242,0,0,1,2.525,1.01,3.242,3.242,0,0,1,1.01,2.525,4.055,4.055,0,0,1-1.263,2.778,3.242,3.242,0,0,1-2.525,1.01H45.815v.253l7.071,12.121h5.05V23.99l-4.8-8.333A5.844,5.844,0,0,0,56.674,13.131Z" transform="translate(59.489)"/><path d="M143.076,13.131a8.313,8.313,0,0,0,1.516-4.8,7.314,7.314,0,0,0-2.526-5.808A8.221,8.221,0,0,0,136.258,0H125.652a.247.247,0,0,0-.252.253V.505l2.273,4.04h8.586a2.928,2.928,0,0,1,2.525,1.01,3.243,3.243,0,0,1,1.01,2.525,4.057,4.057,0,0,1-1.262,2.778,3.243,3.243,0,0,1-2.525,1.01h-3.788v.253l7.07,12.121h5.051V23.99l-4.8-8.081A7.593,7.593,0,0,0,143.076,13.131Z" transform="translate(191.27)"/><path d="M67.515,0H51.353A.247.247,0,0,0,51.1.253V.505l4.04,4.04H67.515c.253,0,.253,0,.253-.253V.253A.247.247,0,0,0,67.515,0Z" transform="translate(77.941)"/><path d="M59.518,8.545c.252,0,.252,0,.252-.253V4.252c0-.253,0-.253-.252-.253H52.952c-.253,0-.253,0-.253.253v4.04c0,.253,0,.253.253.253Z" transform="translate(80.383 6.101)"/><path d="M67.514,8H55.14L51.1,12.04v.253l.253.253H67.514c.253,0,.253,0,.253-.253V8.252A.247.247,0,0,0,67.514,8Z" transform="translate(77.942 12.202)"/><path d="M89.546,0H85a.247.247,0,0,0-.253.253L77.425,14.9,72.374,4.8l-.253-.253a.247.247,0,0,0-.252.253L69.6,9.344V9.6l7.576,15.152.253.253a.247.247,0,0,0,.253-.253L89.8.505c0-.253,0-.253-.253-.505Z" transform="translate(106.163)"/><path d="M66.749.253h0L61.953,0H61.7V.253L73.821,24.5l.253.253a.247.247,0,0,0,.252-.253L76.6,19.95V19.7Z" transform="translate(94.109)"/><path d="M97.073,0a13.078,13.078,0,0,0-8.84,3.535A11.616,11.616,0,0,0,84.7,12.374a12.619,12.619,0,0,0,3.535,8.838,11.617,11.617,0,0,0,8.84,3.535,12.619,12.619,0,0,0,8.838-3.535,11.466,11.466,0,0,0,3.786-8.838,12.255,12.255,0,0,0-3.786-8.838A12.619,12.619,0,0,0,97.073,0Zm5.556,17.929a7.928,7.928,0,0,1-11.113,0,7.425,7.425,0,0,1-2.273-5.556,7.425,7.425,0,0,1,2.273-5.556,7.426,7.426,0,0,1,5.557-2.273,7.834,7.834,0,0,1,5.556,2.273,7.425,7.425,0,0,1,2.273,5.556A7.425,7.425,0,0,1,102.628,17.929Z" transform="translate(129.194)"/><path d="M117.738.253c0-.253-.253-.253,0,0L111.677,0h-.253L99.3,12.121v.505l12.121,12.121h6.061a.247.247,0,0,0,.253-.253v-.253L105.869,12.374,117.738.505Z" transform="translate(151.457)"/><path d="M170.273.253h0L164.466,0h-.252L152.091,12.121v.505l12.122,12.121h6.06a.247.247,0,0,0,.253-.253v-.253L158.658,12.374,170.526.505Z" transform="translate(232.004)"/><path d="M123.179,0a13.082,13.082,0,0,0-8.842,3.535,11.614,11.614,0,0,0-3.536,8.838,12.618,12.618,0,0,0,3.536,8.838,11.62,11.62,0,0,0,8.842,3.535,12.609,12.609,0,0,0,8.834-3.535,11.462,11.462,0,0,0,3.788-8.838,12.251,12.251,0,0,0-3.788-8.838A13.555,13.555,0,0,0,123.179,0Zm5.554,17.929a7.928,7.928,0,0,1-11.112,0,7.422,7.422,0,0,1-2.274-5.556,7.422,7.422,0,0,1,2.274-5.556,7.429,7.429,0,0,1,5.558-2.273,7.829,7.829,0,0,1,5.554,2.273A7.433,7.433,0,0,1,131,12.374,7.433,7.433,0,0,1,128.734,17.929Z" transform="translate(169)"/><path d="M149.873,0a13.079,13.079,0,0,0-8.841,3.535,11.616,11.616,0,0,0-3.535,8.838,12.619,12.619,0,0,0,3.535,8.838,11.618,11.618,0,0,0,8.841,3.535,12.619,12.619,0,0,0,8.839-3.535,11.467,11.467,0,0,0,3.785-8.838,12.257,12.257,0,0,0-3.785-8.838A13.077,13.077,0,0,0,149.873,0Zm5.556,17.929a7.834,7.834,0,0,1-5.556,2.273,7.428,7.428,0,0,1-5.558-2.273,7.425,7.425,0,0,1-2.273-5.556,7.425,7.425,0,0,1,2.273-5.556,7.428,7.428,0,0,1,5.558-2.273,7.834,7.834,0,0,1,5.556,2.273,7.425,7.425,0,0,1,2.273,5.556A7.425,7.425,0,0,1,155.429,17.929Z" transform="translate(209.729)"/><path d="M175.883,0a13.078,13.078,0,0,0-8.839,3.535,11.617,11.617,0,0,0-3.535,8.838,12.619,12.619,0,0,0,3.535,8.838,11.616,11.616,0,0,0,8.839,3.535,12.619,12.619,0,0,0,8.839-3.535,11.463,11.463,0,0,0,3.788-8.838,12.252,12.252,0,0,0-3.788-8.838A12.619,12.619,0,0,0,175.883,0Zm5.555,17.929a7.926,7.926,0,0,1-11.111,0,7.424,7.424,0,0,1-2.273-5.556,7.425,7.425,0,0,1,2.273-5.556,7.424,7.424,0,0,1,5.556-2.273,7.832,7.832,0,0,1,5.555,2.273,7.424,7.424,0,0,1,2.273,5.556A7.424,7.424,0,0,1,181.438,17.929Z" transform="translate(249.374)"/><path d="M182.9,0h-4.8V.253L190.22,24.5l.253.253a.247.247,0,0,0,.253-.253L193,20.2V19.95L182.9,0Z" transform="translate(271.651)"/></g></svg>